<svg xmlns="http://www.w3.org/2000/svg" width="576" height="540" fill="none" viewBox="0 0 576 540"><path fill-opacity=".06" d="M344.825 287.058c-19.44 56.644-38.822 113.055-58.072 169.51-1.06 3.108-2.442 4.058-5.732 4.046-36.335-.13-72.671-.082-109.006-.082H168l98.787-291.465h3.865c66.869 0 133.739.017 200.609-.067 2.662-.003 3.891.696 4.782 3.242 32.956 94.223 65.988 188.419 99.006 282.62.296.845.538 1.708.951 3.027H403.786v81.996l-.713.115-67.678-190.618c1.401-.121 2.539-.303 3.678-.304 24.223-.016 48.447-.012 72.671-.013 7.117 0 8.028-1.225 5.694-7.797-13.207-37.193-26.426-74.381-39.641-111.571-1.453-4.09-2.828-8.211-4.421-12.246-.427-1.082-.901-2.841-2.317-2.841s-1.894 1.837-2.283 2.948c-4.998 14.289-9.891 28.614-14.811 42.929-3.019 8.783-6.037 17.566-9.14 26.571" fill="#3b82f6"/><path d="M411 0h56v56h-56z" opacity=".9" fill="#3b82f6"/><path d="M509 201h57v57h-57z" fill="#1d4ed8"/><path d="M0 444h57v57H0z" fill="#1e3a8a"/></svg>