<svg
  xmlns="http://www.w3.org/2000/svg"
  width="1266"
  height="300"
  fill="none"
  viewBox="0 0 1266 300"
>
  <path
    fill="url(#pattern-gradient)"
    fill-opacity=".2"
    fillRule="evenodd"
    d="M78.846 0h131.059l-.231.664-104 299-.116.336H-25l.23-.664 103.5-299zm.712 1L-23.596 299h128.443L208.499 1zm351.288-1h131.06l-.232.664-104 299-.116.336H327l.23-.664 103.5-299zm.712 1L328.404 299h128.443L560.499 1zm351.644-1h-.356l-.116.336-103.5 299-.23.664h130.558l.116-.336 104-299 .232-.664H783.202M680.404 299 783.558 1h128.941L808.847 299zM253.846 0h131.059l-.231.664-104 299-.116.336H150l.23-.664 103.5-299zm.712 1L151.404 299h128.443L383.499 1zm351.644-1h-.356l-.116.336-103.5 299-.23.664h130.558l.116-.336 104-299 .232-.664H606.202M503.404 299 606.558 1h128.941L631.847 299zM957.846 0h131.064l-.24.664-103.996 299-.116.336H854l.23-.664 103.5-299zm.712 1L855.404 299h128.443L1087.5 1zM1135.2 0h-.35l-.12.336-103.5 299-.23.664h130.56l.11-.336 104-299 .24-.664H1135.2m-102.8 299L1135.56 1h128.94l-103.65 298z"
    clipRule="evenodd"
  />
  <defs>
    <linearGradient
      id="pattern-gradient"
      x1="620.453"
      x2="620.453"
      y1="0"
      y2="300"
      gradientUnits="userSpaceOnUse"
    >
      <stop stop-color="#3b82f6"/>
      <stop offset="1" stop-color="#fff" stop-opacity="0"/>
    </linearGradient>
  </defs>
</svg>
